<svg version="1.1" id="Layer_1" xmlns="http://www.w3.org/2000/svg" xmlns:xlink="http://www.w3.org/1999/xlink" x="0px" y="0px"
	 width="100%" viewBox="0 0 1024 992" enable-background="new 0 0 1024 992" xml:space="preserve">
<path fill="#000000" opacity="1.000000" stroke="none" 
	d="
M548.000000,801.274048 
	C433.501068,801.279297 319.502136,801.289856 205.503220,801.279419 
	C195.458633,801.278503 196.756332,801.774109 196.670532,792.320312 
	C194.960983,603.998047 196.350372,415.671234 195.834473,227.347183 
	C195.833557,227.013855 195.834030,226.680527 195.834106,226.347198 
	C195.836472,216.815918 196.485352,216.011795 205.981705,216.052628 
	C234.623886,216.175735 263.265533,216.423111 291.907410,216.617310 
	C293.740509,216.629745 295.577698,216.521957 297.406403,216.608536 
	C301.917236,216.822037 303.890961,215.228577 303.808533,210.225739 
	C303.522888,192.897308 303.695923,175.561234 303.707672,158.228058 
	C303.712982,150.368469 304.359528,149.732666 312.296875,149.717621 
	C322.130096,149.698990 331.963409,149.676147 341.796539,149.697449 
	C347.024780,149.708786 348.097748,151.126633 348.075989,156.131882 
	C347.995056,174.774155 348.124146,193.417252 348.111847,212.059998 
	C348.109924,214.983154 349.479431,216.363144 352.263855,216.537933 
	C353.426727,216.610916 354.595520,216.609375 355.761597,216.609421 
	C444.760773,216.612961 533.759949,216.614044 622.759094,216.612686 
	C632.936829,216.612534 632.938171,216.605591 633.028564,206.609894 
	C633.207825,186.782272 633.497864,166.954529 633.480164,147.127090 
	C633.476013,142.513535 635.001343,140.222427 639.680298,140.199249 
	C650.845398,140.143967 662.010315,140.027161 673.175415,139.971756 
	C677.805481,139.948792 677.318665,143.401382 677.322388,146.368362 
	C677.348877,167.201416 677.335571,188.034500 677.336121,208.867584 
	C677.336121,210.200867 677.390564,211.535797 677.341858,212.867096 
	C677.251587,215.332993 678.329468,216.630859 680.867371,216.600296 
	C682.200256,216.584244 683.533691,216.617798 684.866882,216.617661 
	C719.699890,216.614273 754.532898,216.604019 789.365906,216.609390 
	C796.173767,216.610443 796.329895,216.769211 796.329773,223.633789 
	C796.327393,413.798553 796.320129,603.963318 796.308533,794.128113 
	C796.308105,801.264343 796.283508,801.316101 788.981079,801.315735 
	C708.820740,801.311768 628.660339,801.290405 548.000000,801.274048 
M300.500000,756.967224 
	C386.144104,756.960144 471.788208,756.952332 557.432312,756.946411 
	C620.249268,756.942017 683.066284,756.943298 745.883240,756.933228 
	C752.480835,756.932190 752.682373,756.804199 752.621338,750.239319 
	C752.551575,742.748962 752.119934,735.260559 752.117004,727.771179 
	C752.072510,614.967285 752.072571,502.163330 752.062927,389.359406 
	C752.062317,381.980164 751.989197,381.870239 744.503967,381.884613 
	C716.512268,381.938293 688.520569,382.074371 660.528870,382.076599 
	C522.898071,382.087616 385.267273,382.065643 247.636459,382.054962 
	C240.307739,382.054382 240.267654,382.053040 240.267792,387.999084 
	C240.270676,509.134186 240.304703,630.269287 240.210403,751.404358 
	C240.206909,755.899170 241.757843,757.090210 246.014694,757.046936 
	C263.841553,756.865784 281.671295,756.968079 300.500000,756.967224 
M545.500000,337.686066 
	C612.147095,337.689728 678.794250,337.690216 745.441345,337.706360 
	C748.827942,337.707184 752.131226,338.270782 752.095276,332.953125 
	C751.941895,310.294312 752.010864,287.633728 752.075623,264.974030 
	C752.085205,261.609589 750.839417,260.199554 747.347534,260.273193 
	C739.020142,260.448822 730.687012,260.360626 722.356201,260.360992 
	C564.235474,260.367645 406.114777,260.371674 247.994080,260.376495 
	C240.247345,260.376709 240.257126,260.377747 240.260498,268.350525 
	C240.269241,289.011169 240.271484,309.671814 240.270020,330.332458 
	C240.269501,337.699402 240.261246,337.703918 247.586304,337.703522 
	C346.557526,337.698303 445.528778,337.691742 545.500000,337.686066 
z"/>
<path fill="#000000" opacity="1.000000" stroke="none" 
	d="
M445.481079,721.406494 
	C442.047821,715.784546 443.748627,709.289368 450.675690,707.415222 
	C459.121948,705.130066 458.785461,699.996399 458.783447,693.385071 
	C458.780609,684.235962 456.866089,677.954346 448.058411,672.130005 
	C433.331085,662.390808 426.343781,646.773438 425.939270,628.901855 
	C425.809814,623.181824 424.497620,619.032166 419.714844,615.313538 
	C413.116852,610.183594 407.236115,604.080017 407.612976,594.588196 
	C407.680145,592.896545 406.157349,592.102478 405.111328,591.045898 
	C403.125671,589.040161 401.073303,587.069092 399.328583,584.862305 
	C394.891907,579.250610 393.028900,572.973083 396.298492,566.228760 
	C399.678253,559.257202 405.946014,556.378662 413.361542,555.851379 
	C419.721375,555.399170 425.442780,557.722900 431.084808,560.333984 
	C443.165833,565.924927 455.044434,572.030334 468.225891,574.831787 
	C476.315247,576.551086 483.923096,575.038330 490.671753,570.666199 
	C509.901886,558.207825 518.030823,540.527893 516.378296,517.517212 
	C515.218750,501.372131 510.377167,486.178436 507.032013,470.583221 
	C504.170532,457.243225 501.093170,443.853546 501.860046,430.081238 
	C502.322937,421.768250 503.230499,413.427704 509.917786,407.131500 
	C517.960022,399.559601 527.058289,398.597534 537.271667,401.780670 
	C546.992615,404.810333 553.642578,410.504517 555.643921,420.769714 
	C556.343262,424.357056 556.856995,428.005341 557.111450,431.649811 
	C557.775146,441.154785 565.454285,447.098328 574.880859,445.071503 
	C577.963684,444.408630 580.943481,443.278442 583.990906,442.436096 
	C587.323730,441.514862 590.417786,441.960449 592.421997,445.010254 
	C594.329651,447.913208 593.461975,450.890717 591.429443,453.338257 
	C584.018799,462.261810 574.564575,467.201172 562.844238,467.390381 
	C554.299072,467.528351 554.356506,467.484222 554.196899,476.194305 
	C553.808289,497.397217 555.026245,518.508789 559.390686,539.268188 
	C562.677368,554.901184 567.346008,570.211975 572.860596,585.233215 
	C582.412964,611.253418 580.977661,636.492249 567.537048,660.894409 
	C561.732178,671.433533 552.847046,677.896118 541.274963,680.829712 
	C538.692505,681.484314 536.108887,682.134827 533.532898,682.814270 
	C530.714050,683.557678 527.502808,683.542847 527.275269,687.856140 
	C527.057983,691.976074 527.495056,694.906006 531.959656,697.010315 
	C539.842834,700.726013 546.440796,706.442871 552.397705,712.823364 
	C553.910461,714.443604 555.337097,716.160767 554.244507,718.581970 
	C553.199951,720.896545 551.111572,721.364929 548.829468,721.370422 
	C548.496277,721.371216 548.163086,721.368042 547.829895,721.369995 
	C538.618835,721.422791 538.614685,721.423584 540.208313,730.127563 
	C540.616760,732.358337 540.617371,734.479248 538.619263,736.038452 
	C536.360840,737.800842 533.895081,737.501038 531.525757,736.436829 
	C521.917114,732.120728 513.010498,726.585266 504.432007,720.514648 
	C501.719818,718.595337 498.987518,716.671387 496.899414,713.998230 
	C491.510712,707.099854 493.958099,700.293945 502.579559,698.363525 
	C504.337433,697.969971 506.136017,697.758179 508.070221,697.436951 
	C508.857971,694.451477 507.719788,691.718140 507.642944,688.962036 
	C507.584198,686.854492 505.955170,686.270264 504.124268,686.257263 
	C494.512848,686.188965 484.885681,686.570007 475.064789,684.494629 
	C474.754700,691.293457 474.519501,697.405823 474.176636,703.512146 
	C474.032501,706.079163 475.368683,707.274109 477.481659,708.450500 
	C485.535980,712.934509 492.628448,718.723816 499.147858,725.217346 
	C500.929657,726.992004 502.877777,728.822083 501.479401,731.709656 
	C500.255737,734.236511 497.895142,734.342896 495.478149,734.304504 
	C487.990631,734.185547 480.500610,733.961060 473.015106,734.056763 
	C465.605652,734.151489 458.882111,732.693665 453.259216,727.444885 
	C450.959259,725.298096 448.260956,723.578003 445.481079,721.406494 
M541.580444,429.904297 
	C541.915588,428.617157 542.505371,427.336823 542.539978,426.041656 
	C542.663696,421.410889 541.126160,417.432251 536.889648,415.133240 
	C533.405762,413.242676 529.781372,413.435791 526.539124,415.874969 
	C522.629700,418.815979 520.435364,426.625671 522.062500,431.322113 
	C524.405090,438.083740 531.797180,440.213074 537.400635,435.744537 
	C539.135803,434.360809 540.273499,432.529602 541.580444,429.904297 
z"/>
</svg>