<svg version="1.1" id="Layer_1" xmlns="http://www.w3.org/2000/svg" xmlns:xlink="http://www.w3.org/1999/xlink" x="0px" y="0px"
	 width="100%" viewBox="0 0 1024 992" enable-background="new 0 0 1024 992" xml:space="preserve">
<path fill="#000000" opacity="1.000000" stroke="none"
	d="
M656.154785,856.202881
	C625.709412,868.105469 594.632202,876.074280 562.592896,880.047974
	C523.345764,884.915588 484.179169,884.335022 445.151886,877.474976
	C393.432495,868.383911 345.482483,849.742981 301.599640,820.869080
	C239.093002,779.741211 191.775055,725.357971 160.269440,657.457336
	C142.819412,619.849060 132.365234,580.268738 127.545677,539.050537
	C121.963173,491.307495 125.584976,444.303253 137.228317,397.836578
	C148.655853,352.231110 168.652496,310.531036 195.552551,272.072357
	C221.512466,234.957794 253.183197,203.468338 290.298248,177.633896
	C325.417236,153.188858 363.612549,134.993851 404.821045,123.088188
	C440.951385,112.649651 477.793030,107.587616 515.302734,108.102234
	C569.271179,108.842667 621.032898,120.228317 670.417969,142.139938
	C718.742676,163.581070 760.841492,193.773438 796.880981,232.405670
	C828.348511,266.136993 852.361389,304.613403 870.588501,346.962402
	C886.721558,384.446106 894.353882,423.787231 898.305115,464.057617
	C902.544861,507.268097 898.723572,549.936768 888.080383,591.895508
	C872.920898,651.659607 845.274719,705.009827 804.434387,751.431152
	C771.803284,788.521423 733.647644,818.466248 689.763733,841.091003
	C678.957397,846.662292 667.817444,851.560486 656.154785,856.202881
M738.895691,726.397095
	C751.486755,713.962891 763.074097,700.652954 773.414978,686.293701
	C819.294861,622.585144 840.255493,551.646179 836.104492,473.100159
	C834.121704,435.580139 823.946350,400.169373 809.567932,366.011261
	C790.185425,319.965393 760.770508,280.689575 722.433472,248.716248
	C653.176819,190.955719 573.454773,165.294937 483.244507,172.981781
	C435.759491,177.028015 391.677094,191.628159 350.689636,215.478149
	C302.248779,243.665192 263.230530,281.672516 234.420578,329.926849
	C206.574249,376.567200 190.756271,426.915161 188.364105,481.254425
	C186.594833,521.444336 192.402679,560.626404 205.471970,598.695923
	C220.331009,641.978943 242.792801,680.848389 274.016846,714.355042
	C325.305115,769.392822 388.166748,803.141663 462.506287,815.161194
	C509.296387,822.726501 555.547668,819.626404 601.024353,806.563354
	C653.415894,791.514038 699.095154,764.639221 738.895691,726.397095
z"/>
<path fill="#000000" opacity="1.000000" stroke="none"
	d="
M480.868591,529.411621
	C484.359619,524.759399 486.140747,524.581848 489.704529,528.235046
	C496.694641,535.400574 504.966644,536.605164 514.180786,533.576477
	C516.075378,532.953674 517.963928,532.161560 519.916565,531.892578
	C528.432434,530.719360 536.489319,531.740173 541.960510,539.203735
	C547.628418,546.935608 546.516296,555.252808 542.470764,563.318420
	C538.120972,571.990662 530.985596,577.935364 522.529236,582.290588
	C516.314026,585.491577 509.846802,588.199524 503.567169,591.280701
	C496.509705,594.743652 491.010376,599.842346 487.109467,606.792114
	C482.386627,615.206238 482.524628,623.219666 486.676422,631.991272
	C494.123657,647.725342 504.388245,661.752136 512.766907,676.900574
	C515.067017,681.059021 518.795837,685.424866 515.920471,690.241699
	C512.969666,695.185059 507.209045,694.556030 502.262360,694.244141
	C489.990173,693.470398 481.324707,686.330261 474.054749,677.234070
	C470.972900,673.377991 468.493774,669.040222 465.771118,664.966919
	C463.854095,665.498840 463.502960,667.133850 462.669250,668.306763
	C450.785858,685.024719 434.966400,692.682495 414.360199,689.347412
	C412.063232,688.975647 409.970123,688.313904 408.311432,691.075500
	C406.707520,693.745789 408.355927,694.991638 409.732697,696.632751
	C411.637909,698.903687 411.795868,701.642944 410.840637,704.205017
	C408.395782,710.762512 405.771118,717.275818 401.346313,722.828430
	C397.612793,727.513611 395.468262,727.412537 392.717773,722.242554
	C391.112335,719.224915 388.459015,718.171204 385.486847,717.493591
	C380.439819,716.343018 378.369659,713.280884 378.637085,708.102722
	C379.120880,698.735474 382.177490,694.924988 391.384827,692.801636
	C395.848663,691.772156 397.342316,687.781250 399.375488,684.423035
	C400.092255,683.239197 399.003387,682.235229 398.129272,681.447021
	C388.756897,672.995300 381.062714,663.250366 375.354187,651.096375
	C370.335999,654.393860 365.655548,657.398254 361.064575,660.533630
	C359.845642,661.366089 360.178070,662.928284 360.017853,664.239929
	C359.735962,666.547607 359.549591,668.905090 358.913116,671.124023
	C357.183380,677.154053 353.653046,678.741577 347.888367,676.120056
	C342.281311,673.570190 336.603943,671.103943 331.669434,667.324646
	C326.853210,663.635864 326.767548,662.182373 331.021057,657.923340
	C329.673370,656.298584 328.210815,654.725403 326.967773,652.994568
	C324.811584,649.992249 325.808899,647.912720 329.226532,647.143372
	C334.022186,646.063721 338.650482,647.195557 342.659454,649.708923
	C348.275543,653.229858 353.198364,652.640564 358.223694,648.689819
	C361.886475,645.810242 365.753906,643.188110 369.568298,640.505554
	C371.209534,639.351318 371.973785,637.887085 371.957275,635.865295
	C371.785828,614.844238 382.789337,600.870850 400.384674,591.183594
	C410.289703,585.730347 410.355194,585.790344 404.309998,574.868164
	C398.846985,577.234131 394.062958,580.825195 389.037964,583.944580
	C374.883453,592.731384 360.841309,601.698975 346.723785,610.545715
	C344.472504,611.956543 342.147583,613.318726 339.704895,614.340515
	C334.932953,616.336487 330.108398,614.809143 327.391937,610.718201
	C324.837708,606.871582 325.229797,601.917908 328.793976,598.364868
	C330.773071,596.391907 333.181763,594.791260 335.566681,593.293152
	C357.012634,579.821106 378.469055,566.365112 400.001495,553.032104
	C402.872803,551.254089 404.771820,549.178894 405.676575,545.887695
	C407.313538,539.933044 410.602325,535.118591 415.739014,531.430298
	C419.585815,528.668091 422.805176,528.661316 425.699524,532.373596
	C427.518433,534.706604 429.138428,534.788025 431.589783,533.240662
	C449.764801,521.767944 468.349030,510.901367 486.061951,498.760681
	C492.629150,494.259460 498.492157,493.400452 506.080780,493.643250
	C527.218262,494.319519 548.398132,493.895477 569.556335,493.578247
	C577.130371,493.464722 580.966553,488.890228 580.816711,481.511200
	C580.799805,480.678101 580.674438,479.829071 580.789917,479.014404
	C581.544434,473.690125 579.533691,470.531097 574.807434,467.367889
	C564.143188,460.230499 558.414429,449.618744 557.745789,436.664337
	C557.493591,431.777985 556.447266,427.814484 552.207336,424.614319
	C547.783508,421.275421 544.269775,416.927765 544.434448,410.768494
	C544.476257,409.205170 543.161377,408.548096 542.275696,407.586395
	C540.700684,405.876312 538.987183,404.242767 537.695618,402.331268
	C531.766724,393.556763 536.583008,383.684937 547.137268,382.674042
	C552.497498,382.160645 557.320312,383.739807 562.055176,385.972046
	C570.336548,389.876282 578.570740,393.843384 587.578186,395.989349
	C592.775513,397.227570 597.750854,396.557617 602.078064,394.122803
	C614.667603,387.038971 622.044434,376.437195 622.711426,361.559387
	C623.304504,348.331146 619.384583,335.919098 616.549988,323.267670
	C613.830566,311.130554 610.611328,299.013855 612.671448,286.308167
	C614.197693,276.894684 621.342896,269.500519 629.968140,270.050873
	C640.604187,270.729523 650.421448,274.682922 651.342712,287.317688
	C651.391052,287.981720 651.437561,288.648376 651.537537,289.305786
	C653.522766,302.360535 656.903442,304.477966 669.961487,300.944061
	C672.752014,300.188843 675.769653,299.526611 677.604675,302.565674
	C679.417114,305.567322 677.573608,308.117493 675.587341,310.150543
	C668.882751,317.013153 660.476746,319.514679 650.592041,318.953522
	C649.752869,329.431458 650.006348,339.684509 650.750366,349.937469
	C652.185303,369.713898 658.206726,388.369751 664.505371,406.992859
	C669.552979,421.917175 668.688354,436.767700 662.934998,451.428040
	C658.173035,463.562042 649.828430,471.184631 636.779480,473.514313
	C633.932922,474.022522 630.111633,473.941498 630.327820,478.773499
	C630.427429,481.000061 630.945068,482.535736 633.043335,483.586731
	C637.381531,485.759735 641.392700,488.477264 644.930603,491.804169
	C647.143311,493.884888 649.777100,493.694733 652.436584,493.694611
	C693.932739,493.692688 735.428833,493.691711 776.924988,493.693817
	C779.586792,493.693939 782.246399,493.584625 784.787537,494.707581
	C788.888672,496.520020 791.137878,499.714447 791.015564,504.081512
	C790.892151,508.487915 788.318970,511.543030 784.154236,513.000061
	C781.467163,513.940125 778.624817,514.073425 775.767334,514.072327
	C688.275513,514.038269 600.781982,514.267517 513.294189,513.669373
	C503.903595,513.605164 496.813751,516.071838 489.436218,520.863525
	C473.511078,531.206848 457.352203,541.194397 441.173737,551.140137
	C437.971771,553.108582 437.329529,554.750366 439.101593,558.234985
	C443.742798,567.361450 449.960815,575.399597 455.833344,583.680786
	C458.488495,587.424927 462.246765,587.644775 466.111145,585.955322
	C478.498779,580.539673 487.356934,571.886169 491.089569,558.512329
	C491.618469,556.617310 490.653656,555.776367 489.708496,554.625610
	C487.594910,552.052368 485.438507,549.501953 483.506531,546.794495
	C479.809906,541.613892 478.518524,535.965149 480.868591,529.411621
M610.240845,476.294312
	C607.916748,476.299530 605.513550,475.928253 603.286560,476.395905
	C599.714417,477.145996 595.090759,472.839050 592.883972,477.114807
	C591.311218,480.162140 592.409912,484.588440 592.318054,488.399384
	C592.314026,488.565125 592.311890,488.733093 592.333130,488.896912
	C592.847534,492.861969 596.145569,493.428223 598.972961,493.438599
	C601.632812,493.448395 605.655701,495.643066 606.633606,490.615051
	C607.259216,487.398376 609.496643,485.675201 612.442505,485.241913
	C615.636414,484.772186 617.041931,483.631348 616.759766,480.133453
	C616.438965,476.156860 613.897705,476.281891 610.240845,476.294312
M522.153503,562.486633
	C526.763184,564.539490 530.655884,563.395325 533.685913,559.568115
	C536.482788,556.035461 536.451111,552.139160 534.063232,548.418335
	C531.620361,544.611877 527.859131,543.528442 523.606323,544.351746
	C519.841309,545.080688 517.397156,547.564941 516.471741,551.228882
	C515.239014,556.109985 517.502380,559.570068 522.153503,562.486633
M638.459045,294.899536
	C639.158386,293.785370 640.013855,292.738525 640.528625,291.544769
	C642.275269,287.494202 641.050171,283.022675 637.606445,281.148499
	C634.452515,279.431976 631.545044,279.925842 629.143921,282.703766
	C625.933716,286.417664 625.490173,291.922119 628.336792,294.998779
	C631.321533,298.224640 634.606262,298.321228 638.459045,294.899536
z"/>
</svg>