<?xml version="1.0" encoding="UTF-8" standalone="no"?>
<!DOCTYPE svg PUBLIC "-//W3C//DTD SVG 1.1//EN" "http://www.w3.org/Graphics/SVG/1.1/DTD/svg11.dtd">
<!-- Created with Vectornator (http://vectornator.io/) -->
<svg height="210.0mm" stroke-miterlimit="10" style="fill-rule:nonzero;clip-rule:evenodd;stroke-linecap:round;stroke-linejoin:round;" version="1.1" viewBox="0 0 841.995 595.35" width="297.0mm" xml:space="preserve" xmlns="http://www.w3.org/2000/svg" xmlns:xlink="http://www.w3.org/1999/xlink">
<defs/>
<g id="Camada-1">
<g opacity="1">
<path d="M118.359 322.392C138.268 363.196 159.825 403.208 181.154 443.313C211.095 383.122 211.095 383.122 241.035 322.931C241.035 322.931 224.325 329.915 207.987 323.92C191.648 317.926 175.681 298.954 175.681 298.954C175.681 298.954 166.401 319.394 152.071 325.254C137.74 331.113 118.359 322.392 118.359 322.392Z" fill="#000000" fill-rule="nonzero" opacity="1" stroke="#000000" stroke-linecap="butt" stroke-linejoin="round" stroke-width="1"/>
<path d="M108.541 313.368C131.725 361.727 156.828 409.146 181.667 456.677C216.533 385.342 216.533 385.342 251.399 314.006C251.399 314.006 231.94 322.283 212.913 315.179C193.887 308.075 175.293 285.59 175.293 285.59C175.293 285.59 164.487 309.815 147.799 316.759C131.11 323.704 108.541 313.368 108.541 313.368Z" fill="#000000" fill-rule="nonzero" opacity="1" stroke="#000000" stroke-linecap="butt" stroke-linejoin="round" stroke-width="1"/>
</g>
<g opacity="1">
<path d="M129.152 331.178C145.574 364.734 163.354 397.639 180.947 430.62C205.642 381.12 205.642 381.12 230.337 331.62C230.337 331.62 216.555 337.364 203.078 332.434C189.602 327.505 176.432 311.902 176.432 311.902C176.432 311.902 168.778 328.712 156.958 333.531C145.138 338.349 129.152 331.178 129.152 331.178Z" fill="#ffffff" fill-rule="nonzero" opacity="1" stroke="#000000" stroke-linecap="butt" stroke-linejoin="round" stroke-width="1"/>
<path d="M121.054 323.756C140.177 363.525 160.882 402.522 181.369 441.61C210.127 382.946 210.127 382.946 238.885 324.281C238.885 324.281 222.835 331.088 207.142 325.246C191.449 319.404 176.112 300.913 176.112 300.913C176.112 300.913 167.199 320.834 153.435 326.545C139.67 332.256 121.054 323.756 121.054 323.756Z" fill="#ffffff" fill-rule="nonzero" opacity="1" stroke="#000000" stroke-linecap="butt" stroke-linejoin="round" stroke-width="1"/>
</g>
<g opacity="0">
<path d="M176.438 311.906C176.438 311.906 168.789 328.712 156.969 333.531C145.149 338.35 129.156 331.188 129.156 331.188C145.578 364.744 163.345 397.643 180.938 430.625C183.782 424.923 184.36 423.759 186.625 419.219C186.304 414.618 185.648 405.673 185.531 403.969C185.17 398.704 184.94 394.439 184.812 390.344C184.66 385.468 184.667 380.905 184.781 373.312C184.789 372.769 184.797 372.354 184.812 371.375C184.987 360.169 184.974 355.196 184.656 349C184.586 347.629 184.039 336.75 183.906 333.938C183.633 328.153 183.563 323.767 183.469 319.125C179.316 315.207 176.438 311.906 176.438 311.906Z" fill="#ffffff" fill-rule="nonzero" opacity="1" stroke="#000000" stroke-linecap="butt" stroke-linejoin="round" stroke-width="1"/>
<path d="M176.125 300.906C176.125 300.906 167.202 320.82 153.438 326.531C139.673 332.242 121.063 323.75 121.062 323.75C140.186 363.519 160.888 402.537 181.375 441.625C183.94 436.392 184.352 435.539 186.5 431.156C186.507 431.083 186.524 430.951 186.531 430.875C186.864 427.384 186.986 424.564 186.812 421.781C186.628 418.833 185.668 405.96 185.531 403.969C185.17 398.704 184.94 394.439 184.812 390.344C184.66 385.468 184.667 380.905 184.781 373.312C184.789 372.769 184.797 372.354 184.812 371.375C184.987 360.169 184.974 355.196 184.656 349C184.586 347.629 184.039 336.75 183.906 333.938C183.504 325.431 183.281 318.692 183.281 312.156C183.281 312.108 183.305 310.085 183.312 308.438C179.14 304.327 176.125 300.906 176.125 300.906Z" fill="#ffffff" fill-rule="nonzero" opacity="1" stroke="#000000" stroke-linecap="butt" stroke-linejoin="round" stroke-width="1"/>
<path d="M182.353 447.693L191.879 430.802L204.18 368.23L194.148 336.751L181.349 341.94L179.619 357.334C179.619 357.334 180.83 369.441 180.484 372.9C180.138 376.36 179.619 391.061 179.619 391.061L179.446 400.055C179.446 400.055 180.473 416.463 180.992 419.057C181.51 421.652 181.357 437.69 181.357 437.69L177.89 446.063" fill="#000000" fill-rule="nonzero" opacity="1" stroke="#000000" stroke-linecap="butt" stroke-linejoin="round" stroke-width="1"/>
</g>
<path d="M183.267 295.719L183.823 342.295L183.293 450.214L180.058 449.936L171.637 296.826L179.03 295.549L182.427 295.091L185.191 299.864L183.267 295.719Z" fill="#000000" fill-rule="nonzero" opacity="0" stroke="#000000" stroke-linecap="butt" stroke-linejoin="round" stroke-width="1"/>
</g>
</svg>
