<svg version="1.1" id="Layer_1" xmlns="http://www.w3.org/2000/svg" xmlns:xlink="http://www.w3.org/1999/xlink" x="0px" y="0px"
	 width="100%" viewBox="0 0 1761 1601" enable-background="new 0 0 1761 1601" xml:space="preserve">
<path fill="#FFFFFF" opacity="1.000000" stroke="none"
	d="
M1145.000000,1602.000000
	C763.333435,1602.000000 382.166901,1602.000000 1.000256,1602.000000
	C1.000170,1068.333618 1.000170,534.667236 1.000085,1.000614
	C587.999573,1.000409 1174.999146,1.000409 1761.999023,1.000205
	C1761.999268,534.666077 1761.999268,1068.332153 1761.999634,1601.999023
	C1556.500000,1602.000000 1351.000000,1602.000000 1145.000000,1602.000000
M1420.222534,912.499695
	C1419.079590,736.518311 1417.994385,560.536499 1416.679443,384.556427
	C1416.578857,371.101440 1415.830078,357.500031 1413.678467,344.243256
	C1409.261230,317.030151 1394.726074,297.930145 1367.130249,290.055389
	C1345.930664,284.005859 1324.255981,281.744171 1302.421021,281.848907
	C1018.781860,283.209076 735.143738,284.783783 451.505127,286.254547
	C438.182343,286.323639 424.857300,285.916718 411.533081,285.747314
	C384.584595,285.404633 360.885681,292.977234 342.943817,314.237091
	C332.653290,326.430695 324.514252,339.909332 319.224976,355.046356
	C314.123474,369.645996 311.294189,384.701447 310.926880,400.106445
	C309.942413,441.397064 308.597931,482.694824 308.580627,523.990234
	C308.489563,741.638306 308.765076,959.286499 308.911377,1176.934692
	C308.950134,1234.596436 308.848724,1292.258911 309.185944,1349.918945
	C309.227783,1357.075562 310.461456,1364.668823 313.113220,1371.267944
	C317.682251,1382.638550 328.996704,1386.588623 340.503784,1382.364136
	C342.030212,1381.803589 343.769775,1381.180542 345.302185,1381.387939
	C353.009888,1382.431030 359.653809,1379.700562 365.188171,1374.966675
	C373.138153,1368.166260 381.128693,1361.221924 387.980560,1353.361572
	C421.487488,1314.923218 454.639221,1276.175171 487.880554,1237.505615
	C501.349457,1221.837280 514.857422,1206.198120 528.030090,1190.282837
	C530.518677,1187.276001 532.666321,1185.848022 536.631042,1185.872559
	C699.447266,1186.873291 862.264221,1187.755371 1025.081055,1188.663696
	C1100.239990,1189.083130 1175.398682,1189.583374 1250.558105,1189.904907
	C1264.171143,1189.963135 1277.909912,1190.379639 1291.376709,1188.803345
	C1321.067993,1185.327881 1348.926392,1175.793335 1373.789551,1158.902466
	C1403.495605,1138.721313 1421.942139,1112.009888 1421.497681,1074.479980
	C1420.862427,1020.822449 1420.632324,967.159973 1420.222534,912.499695
z"/>
<path fill="#000000" opacity="1.000000" stroke="none"
	d="
M1420.225830,912.999634
	C1420.632324,967.159973 1420.862427,1020.822449 1421.497681,1074.479980
	C1421.942139,1112.009888 1403.495605,1138.721313 1373.789551,1158.902466
	C1348.926392,1175.793335 1321.067993,1185.327881 1291.376709,1188.803345
	C1277.909912,1190.379639 1264.171143,1189.963135 1250.558105,1189.904907
	C1175.398682,1189.583374 1100.239990,1189.083130 1025.081055,1188.663696
	C862.264221,1187.755371 699.447266,1186.873291 536.631042,1185.872559
	C532.666321,1185.848022 530.518677,1187.276001 528.030090,1190.282837
	C514.857422,1206.198120 501.349457,1221.837280 487.880554,1237.505615
	C454.639221,1276.175171 421.487488,1314.923218 387.980560,1353.361572
	C381.128693,1361.221924 373.138153,1368.166260 365.188171,1374.966675
	C359.653809,1379.700562 353.009888,1382.431030 345.302185,1381.387939
	C343.769775,1381.180542 342.030212,1381.803589 340.503784,1382.364136
	C328.996704,1386.588623 317.682251,1382.638550 313.113220,1371.267944
	C310.461456,1364.668823 309.227783,1357.075562 309.185944,1349.918945
	C308.848724,1292.258911 308.950134,1234.596436 308.911377,1176.934692
	C308.765076,959.286499 308.489563,741.638306 308.580627,523.990234
	C308.597931,482.694824 309.942413,441.397064 310.926880,400.106445
	C311.294189,384.701447 314.123474,369.645996 319.224976,355.046356
	C324.514252,339.909332 332.653290,326.430695 342.943817,314.237091
	C360.885681,292.977234 384.584595,285.404633 411.533081,285.747314
	C424.857300,285.916718 438.182343,286.323639 451.505127,286.254547
	C735.143738,284.783783 1018.781860,283.209076 1302.421021,281.848907
	C1324.255981,281.744171 1345.930664,284.005859 1367.130249,290.055389
	C1394.726074,297.930145 1409.261230,317.030151 1413.678467,344.243256
	C1415.830078,357.500031 1416.578857,371.101440 1416.679443,384.556427
	C1417.994385,560.536499 1419.079590,736.518311 1420.225830,912.999634
M393.973999,766.500000
	C394.643250,781.460938 394.782623,796.468384 396.092224,811.373047
	C398.804108,842.237305 417.052338,862.505249 447.248016,868.977295
	C452.366333,870.074341 457.611359,870.580444 462.638702,871.335632
	C462.994476,875.818542 463.076294,879.990417 463.698242,884.080139
	C465.377563,895.123169 470.284851,901.215942 481.300690,901.749146
	C505.868713,902.938416 530.498718,902.849121 555.103699,903.268127
	C555.239563,903.270447 555.378540,903.091919 555.607910,902.935059
	C555.607910,892.430969 555.607910,881.866028 555.607910,870.897278
	C545.534729,870.897278 535.724487,871.150330 525.933105,870.828552
	C515.418335,870.483032 512.858765,867.630371 512.947144,857.366577
	C514.581543,856.885925 516.312683,856.413147 518.020996,855.868652
	C531.344666,851.622131 544.145325,845.865295 549.452698,831.999817
	C552.825134,823.189636 554.568176,813.271484 554.746399,803.806885
	C555.508423,763.341187 555.516418,722.859619 555.556274,682.383545
	C555.564636,673.912415 555.002319,665.380310 553.906799,656.980225
	C551.028748,634.912598 540.076782,618.185059 520.080994,607.739807
	C499.027435,596.742004 476.571655,594.420288 453.609802,598.302368
	C428.046509,602.624268 409.352875,616.513184 399.743103,641.229248
	C394.894073,653.700684 394.284454,666.914795 394.144257,680.042786
	C393.839996,708.525879 394.002380,737.013977 393.973999,766.500000
M1222.822876,770.744385
	C1220.193481,760.958130 1217.449341,751.200134 1215.027222,741.362854
	C1214.513916,739.278442 1214.729126,736.767212 1215.366821,734.684814
	C1222.416260,711.661499 1229.625000,688.687012 1236.766357,665.691711
	C1238.259399,660.884460 1239.653442,656.046387 1241.219482,650.799377
	C1224.030762,650.799377 1207.547607,650.998535 1191.074707,650.675171
	C1186.277954,650.581116 1184.287720,651.990356 1182.862183,656.646423
	C1177.102417,675.458130 1170.830688,694.113098 1164.748047,712.825928
	C1164.429199,712.786682 1164.110352,712.747437 1163.791504,712.708252
	C1163.791504,675.896362 1163.791504,639.084534 1163.791504,602.396362
	C1141.264526,602.396362 1119.327881,602.396362 1097.247437,602.396362
	C1097.247437,692.003601 1097.247437,781.372253 1097.247437,870.739746
	C1119.590698,870.739746 1141.660889,870.739746 1164.041138,870.739746
	C1164.041138,839.753784 1164.041138,809.026367 1164.041138,778.298889
	C1164.259277,778.273743 1164.477295,778.248596 1164.695435,778.223511
	C1171.440796,809.127319 1178.186279,840.031128 1184.915283,870.859741
	C1206.595093,870.859741 1227.734131,870.859741 1249.446045,870.859741
	C1240.573730,837.575562 1231.773804,804.562622 1222.822876,770.744385
M733.512329,862.413574
	C733.512329,791.979797 733.512329,721.546021 733.512329,651.135010
	C710.852966,651.135010 688.785217,651.135010 666.384338,651.135010
	C666.384338,653.279053 666.384827,655.087036 666.384277,656.894958
	C666.368835,706.555298 666.388672,756.215637 666.299988,805.875854
	C666.286621,813.363831 666.068176,820.878540 665.383789,828.329407
	C664.859802,834.033020 661.738159,836.132751 655.758789,835.950684
	C650.154175,835.780029 647.441772,833.456421 647.033447,827.817810
	C646.516357,820.678284 646.082886,813.513977 646.070374,806.359558
	C645.983276,756.366028 646.014221,706.372314 646.007385,656.378662
	C646.007141,654.599304 646.007385,652.819946 646.007385,651.073975
	C623.404358,651.073975 601.339417,651.073975 578.976135,651.073975
	C578.976135,652.654968 578.976074,653.960693 578.976196,655.266479
	C578.979492,705.260132 578.929077,755.253967 579.031006,805.247437
	C579.051697,815.403198 579.131348,825.606995 580.093506,835.701904
	C581.665344,852.192200 588.744385,865.435852 605.168335,871.575623
	C616.170532,875.688538 627.581543,876.121338 639.051086,873.304077
	C650.366150,870.524841 658.858459,863.751892 666.256592,853.114868
	C665.935486,859.891479 665.682495,865.229858 665.425110,870.662659
	C688.177307,870.662659 710.710266,870.662659 733.513062,870.662659
	C733.513062,868.010803 733.513062,865.695984 733.512329,862.413574
M867.500000,871.000671
	C879.944824,871.000671 892.389648,871.000671 905.117310,871.000671
	C905.117310,868.704346 905.117310,866.900146 905.117310,865.096008
	C905.117126,832.099731 905.379211,799.100586 905.026855,766.108093
	C904.781433,743.130188 904.056335,720.142700 902.876770,697.193848
	C901.746338,675.200195 889.598694,660.412109 869.456787,653.082947
	C844.599182,644.037842 818.954773,643.890625 794.054626,652.646973
	C776.738892,658.736267 762.785400,669.747131 757.590210,688.727051
	C753.368591,704.150024 753.893616,719.936035 754.065369,735.736511
	C775.193420,735.736511 795.922180,735.736511 816.932983,735.736511
	C816.932983,733.317322 816.885803,731.178223 816.940857,729.041687
	C817.249329,717.061096 817.484253,705.077332 817.955261,693.102905
	C818.144714,688.289490 821.195984,686.117493 825.868164,685.904236
	C831.983215,685.625244 836.214478,688.447327 836.691223,695.079590
	C837.439209,705.487061 837.128113,715.974121 837.162659,726.427795
	C837.177490,730.934204 834.605042,733.888367 830.713867,735.690735
	C822.432922,739.526550 814.081726,743.210327 805.788940,747.020935
	C793.734070,752.560242 781.581665,757.907898 769.709045,763.815857
	C761.767700,767.767639 757.319458,774.744507 755.909119,783.491577
	C752.837769,802.541077 753.077271,821.648621 755.613037,840.708801
	C757.287231,853.292786 762.938843,863.497925 775.170593,868.792480
	C779.717285,870.760559 784.420410,872.655762 789.244812,873.643188
	C808.927246,877.671326 827.606262,872.768250 838.690552,853.671936
	C838.879150,853.346924 839.305786,853.160156 840.167480,852.474060
	C840.167480,858.992798 840.167480,864.898315 840.167480,871.000671
	C849.209717,871.000671 857.854858,871.000671 867.500000,871.000671
M948.082397,858.437805
	C955.125977,862.381104 961.799133,867.348938 969.289246,870.057312
	C985.563171,875.941956 1002.624207,876.174072 1019.599243,873.663696
	C1046.924194,869.622742 1065.331177,854.116760 1073.124390,827.837646
	C1076.370850,816.890320 1075.935913,804.827698 1076.942993,793.252075
	C1077.309814,789.036621 1077.002197,784.762573 1077.002197,780.656555
	C1056.814331,780.656555 1037.262329,780.656555 1017.368042,780.656555
	C1017.368042,788.837708 1017.548401,796.651367 1017.315674,804.452637
	C1017.097656,811.760193 1016.785034,819.097778 1015.874023,826.341675
	C1015.103271,832.470520 1011.673157,835.542480 1006.718628,835.915527
	C1001.860535,836.281433 997.675354,833.606018 996.244629,827.784363
	C994.870544,822.193237 994.136658,816.308105 994.104004,810.546570
	C993.913513,776.892822 993.975586,743.237427 994.051697,709.582703
	C994.062988,704.601257 994.380188,699.595520 994.949707,694.646362
	C995.689392,688.218140 998.181641,685.906982 1003.628540,685.875488
	C1008.899902,685.845032 1012.068481,688.425354 1012.845032,694.338074
	C1013.579590,699.931946 1013.795410,705.612549 1013.927368,711.262268
	C1014.101135,718.702148 1013.970093,726.149109 1013.970093,733.718140
	C1035.203491,733.718140 1055.943970,733.718140 1077.740356,733.718140
	C1076.768066,722.536072 1076.276733,711.593079 1074.784912,700.788208
	C1071.307007,675.597961 1056.178467,660.065186 1032.768433,651.837646
	C1015.153381,645.646790 997.028503,644.978821 979.127747,649.283386
	C952.291260,655.736755 928.675903,671.953430 928.058289,705.860657
	C927.415588,741.142273 927.396667,776.461609 928.302795,811.733765
	C928.749146,829.108093 933.949463,845.545410 948.082397,858.437805
M1326.336914,717.940369
	C1328.436768,679.452454 1330.536621,640.964539 1332.637451,602.461060
	C1307.693848,602.461060 1283.462280,602.461060 1258.972046,602.461060
	C1262.617676,669.929626 1266.246216,737.080139 1269.882568,804.375671
	C1287.314087,804.375671 1304.385498,804.375671 1321.764893,804.375671
	C1323.275757,775.691223 1324.771973,747.284241 1326.336914,717.940369
M1327.112305,836.500427
	C1327.112305,830.096069 1327.112305,823.691650 1327.112305,817.480957
	C1305.793457,817.480957 1285.250610,817.480957 1264.599609,817.480957
	C1264.599609,835.414001 1264.599609,852.995850 1264.599609,870.707642
	C1285.529419,870.707642 1306.228027,870.707642 1327.112305,870.707642
	C1327.112305,859.441284 1327.112305,848.470764 1327.112305,836.500427
z"/>
<path fill="#FEFEFE" opacity="1.000000" stroke="none"
	d="
M393.973999,766.000000
	C394.002380,737.013977 393.839996,708.525879 394.144257,680.042786
	C394.284454,666.914795 394.894073,653.700684 399.743103,641.229248
	C409.352875,616.513184 428.046509,602.624268 453.609802,598.302368
	C476.571655,594.420288 499.027435,596.742004 520.080994,607.739807
	C540.076782,618.185059 551.028748,634.912598 553.906799,656.980225
	C555.002319,665.380310 555.564636,673.912415 555.556274,682.383545
	C555.516418,722.859619 555.508423,763.341187 554.746399,803.806885
	C554.568176,813.271484 552.825134,823.189636 549.452698,831.999817
	C544.145325,845.865295 531.344666,851.622131 518.020996,855.868652
	C516.312683,856.413147 514.581543,856.885925 512.947144,857.366577
	C512.858765,867.630371 515.418335,870.483032 525.933105,870.828552
	C535.724487,871.150330 545.534729,870.897278 555.607910,870.897278
	C555.607910,881.866028 555.607910,892.430969 555.607910,902.935059
	C555.378540,903.091919 555.239563,903.270447 555.103699,903.268127
	C530.498718,902.849121 505.868713,902.938416 481.300690,901.749146
	C470.284851,901.215942 465.377563,895.123169 463.698242,884.080139
	C463.076294,879.990417 462.994476,875.818542 462.638702,871.335632
	C457.611359,870.580444 452.366333,870.074341 447.248016,868.977295
	C417.052338,862.505249 398.804108,842.237305 396.092224,811.373047
	C394.782623,796.468384 394.643250,781.460938 393.973999,766.000000
M485.806793,667.577759
	C485.492096,662.425293 485.394623,657.247925 484.809357,652.126404
	C484.026123,645.272339 480.868744,642.154907 475.273987,642.080322
	C469.537201,642.003845 465.820587,645.427124 465.021851,652.076416
	C464.407806,657.188232 463.984314,662.357422 463.974609,667.502014
	C463.890320,712.148254 463.877472,756.794800 463.958496,801.441040
	C463.970551,808.089172 464.406708,814.751160 464.966187,821.379700
	C465.515625,827.888794 468.223724,830.688477 473.576782,831.021240
	C479.764832,831.405945 483.295288,828.977539 484.140808,822.382690
	C485.153992,814.479858 485.720398,806.467041 485.747681,798.499329
	C485.895996,755.186157 485.818481,711.872253 485.806793,667.577759
z"/>
<path fill="#FEFEFE" opacity="1.000000" stroke="none"
	d="
M1222.898315,771.146973
	C1231.773804,804.562622 1240.573730,837.575562 1249.446045,870.859741
	C1227.734131,870.859741 1206.595093,870.859741 1184.915283,870.859741
	C1178.186279,840.031128 1171.440796,809.127319 1164.695435,778.223511
	C1164.477295,778.248596 1164.259277,778.273743 1164.041138,778.298889
	C1164.041138,809.026367 1164.041138,839.753784 1164.041138,870.739746
	C1141.660889,870.739746 1119.590698,870.739746 1097.247437,870.739746
	C1097.247437,781.372253 1097.247437,692.003601 1097.247437,602.396362
	C1119.327881,602.396362 1141.264526,602.396362 1163.791504,602.396362
	C1163.791504,639.084534 1163.791504,675.896362 1163.791504,712.708252
	C1164.110352,712.747437 1164.429199,712.786682 1164.748047,712.825928
	C1170.830688,694.113098 1177.102417,675.458130 1182.862183,656.646423
	C1184.287720,651.990356 1186.277954,650.581116 1191.074707,650.675171
	C1207.547607,650.998535 1224.030762,650.799377 1241.219482,650.799377
	C1239.653442,656.046387 1238.259399,660.884460 1236.766357,665.691711
	C1229.625000,688.687012 1222.416260,711.661499 1215.366821,734.684814
	C1214.729126,736.767212 1214.513916,739.278442 1215.027222,741.362854
	C1217.449341,751.200134 1220.193481,760.958130 1222.898315,771.146973
z"/>
<path fill="#FDFDFD" opacity="1.000000" stroke="none"
	d="
M733.512695,862.897400
	C733.513062,865.695984 733.513062,868.010803 733.513062,870.662659
	C710.710266,870.662659 688.177307,870.662659 665.425110,870.662659
	C665.682495,865.229858 665.935486,859.891479 666.256592,853.114868
	C658.858459,863.751892 650.366150,870.524841 639.051086,873.304077
	C627.581543,876.121338 616.170532,875.688538 605.168335,871.575623
	C588.744385,865.435852 581.665344,852.192200 580.093506,835.701904
	C579.131348,825.606995 579.051697,815.403198 579.031006,805.247437
	C578.929077,755.253967 578.979492,705.260132 578.976196,655.266479
	C578.976074,653.960693 578.976135,652.654968 578.976135,651.073975
	C601.339417,651.073975 623.404358,651.073975 646.007385,651.073975
	C646.007385,652.819946 646.007141,654.599304 646.007385,656.378662
	C646.014221,706.372314 645.983276,756.366028 646.070374,806.359558
	C646.082886,813.513977 646.516357,820.678284 647.033447,827.817810
	C647.441772,833.456421 650.154175,835.780029 655.758789,835.950684
	C661.738159,836.132751 664.859802,834.033020 665.383789,828.329407
	C666.068176,820.878540 666.286621,813.363831 666.299988,805.875854
	C666.388672,756.215637 666.368835,706.555298 666.384277,656.894958
	C666.384827,655.087036 666.384338,653.279053 666.384338,651.135010
	C688.785217,651.135010 710.852966,651.135010 733.512329,651.135010
	C733.512329,721.546021 733.512329,791.979797 733.512695,862.897400
z"/>
<path fill="#FEFEFE" opacity="1.000000" stroke="none"
	d="
M867.000000,871.000671
	C857.854858,871.000671 849.209717,871.000671 840.167480,871.000671
	C840.167480,864.898315 840.167480,858.992798 840.167480,852.474060
	C839.305786,853.160156 838.879150,853.346924 838.690552,853.671936
	C827.606262,872.768250 808.927246,877.671326 789.244812,873.643188
	C784.420410,872.655762 779.717285,870.760559 775.170593,868.792480
	C762.938843,863.497925 757.287231,853.292786 755.613037,840.708801
	C753.077271,821.648621 752.837769,802.541077 755.909119,783.491577
	C757.319458,774.744507 761.767700,767.767639 769.709045,763.815857
	C781.581665,757.907898 793.734070,752.560242 805.788940,747.020935
	C814.081726,743.210327 822.432922,739.526550 830.713867,735.690735
	C834.605042,733.888367 837.177490,730.934204 837.162659,726.427795
	C837.128113,715.974121 837.439209,705.487061 836.691223,695.079590
	C836.214478,688.447327 831.983215,685.625244 825.868164,685.904236
	C821.195984,686.117493 818.144714,688.289490 817.955261,693.102905
	C817.484253,705.077332 817.249329,717.061096 816.940857,729.041687
	C816.885803,731.178223 816.932983,733.317322 816.932983,735.736511
	C795.922180,735.736511 775.193420,735.736511 754.065369,735.736511
	C753.893616,719.936035 753.368591,704.150024 757.590210,688.727051
	C762.785400,669.747131 776.738892,658.736267 794.054626,652.646973
	C818.954773,643.890625 844.599182,644.037842 869.456787,653.082947
	C889.598694,660.412109 901.746338,675.200195 902.876770,697.193848
	C904.056335,720.142700 904.781433,743.130188 905.026855,766.108093
	C905.379211,799.100586 905.117126,832.099731 905.117310,865.096008
	C905.117310,866.900146 905.117310,868.704346 905.117310,871.000671
	C892.389648,871.000671 879.944824,871.000671 867.000000,871.000671
M817.071045,800.695374
	C817.413391,809.662231 817.384705,818.664124 818.228577,827.583557
	C818.792664,833.545715 822.746277,836.186157 828.651672,835.958923
	C834.081482,835.749939 836.311096,833.676575 837.177490,827.605347
	C837.646057,824.322449 837.954590,820.988281 837.975952,817.674927
	C838.076843,802.024292 838.060242,786.372742 838.061035,770.721558
	C838.061096,769.512756 837.870972,768.303955 837.751221,766.881653
	C825.307068,774.735107 816.956299,784.604065 817.071045,800.695374
z"/>
<path fill="#FEFEFE" opacity="1.000000" stroke="none"
	d="
M947.828979,858.186523
	C933.949463,845.545410 928.749146,829.108093 928.302795,811.733765
	C927.396667,776.461609 927.415588,741.142273 928.058289,705.860657
	C928.675903,671.953430 952.291260,655.736755 979.127747,649.283386
	C997.028503,644.978821 1015.153381,645.646790 1032.768433,651.837646
	C1056.178467,660.065186 1071.307007,675.597961 1074.784912,700.788208
	C1076.276733,711.593079 1076.768066,722.536072 1077.740356,733.718140
	C1055.943970,733.718140 1035.203491,733.718140 1013.970093,733.718140
	C1013.970093,726.149109 1014.101135,718.702148 1013.927368,711.262268
	C1013.795410,705.612549 1013.579590,699.931946 1012.845032,694.338074
	C1012.068481,688.425354 1008.899902,685.845032 1003.628540,685.875488
	C998.181641,685.906982 995.689392,688.218140 994.949707,694.646362
	C994.380188,699.595520 994.062988,704.601257 994.051697,709.582703
	C993.975586,743.237427 993.913513,776.892822 994.104004,810.546570
	C994.136658,816.308105 994.870544,822.193237 996.244629,827.784363
	C997.675354,833.606018 1001.860535,836.281433 1006.718628,835.915527
	C1011.673157,835.542480 1015.103271,832.470520 1015.874023,826.341675
	C1016.785034,819.097778 1017.097656,811.760193 1017.315674,804.452637
	C1017.548401,796.651367 1017.368042,788.837708 1017.368042,780.656555
	C1037.262329,780.656555 1056.814331,780.656555 1077.002197,780.656555
	C1077.002197,784.762573 1077.309814,789.036621 1076.942993,793.252075
	C1075.935913,804.827698 1076.370850,816.890320 1073.124390,827.837646
	C1065.331177,854.116760 1046.924194,869.622742 1019.599243,873.663696
	C1002.624207,876.174072 985.563171,875.941956 969.289246,870.057312
	C961.799133,867.348938 955.125977,862.381104 947.828979,858.186523
z"/>
<path fill="#FDFDFD" opacity="1.000000" stroke="none"
	d="
M1326.302490,718.408813
	C1324.771973,747.284241 1323.275757,775.691223 1321.764893,804.375671
	C1304.385498,804.375671 1287.314087,804.375671 1269.882568,804.375671
	C1266.246216,737.080139 1262.617676,669.929626 1258.972046,602.461060
	C1283.462280,602.461060 1307.693848,602.461060 1332.637451,602.461060
	C1330.536621,640.964539 1328.436768,679.452454 1326.302490,718.408813
z"/>
<path fill="#FCFCFC" opacity="1.000000" stroke="none"
	d="
M1327.112305,837.000305
	C1327.112305,848.470764 1327.112305,859.441284 1327.112305,870.707642
	C1306.228027,870.707642 1285.529419,870.707642 1264.599609,870.707642
	C1264.599609,852.995850 1264.599609,835.414001 1264.599609,817.480957
	C1285.250610,817.480957 1305.793457,817.480957 1327.112305,817.480957
	C1327.112305,823.691650 1327.112305,830.096069 1327.112305,837.000305
z"/>
<path fill="#030303" opacity="1.000000" stroke="none"
	d="
M485.812744,668.068176
	C485.818481,711.872253 485.895996,755.186157 485.747681,798.499329
	C485.720398,806.467041 485.153992,814.479858 484.140808,822.382690
	C483.295288,828.977539 479.764832,831.405945 473.576782,831.021240
	C468.223724,830.688477 465.515625,827.888794 464.966187,821.379700
	C464.406708,814.751160 463.970551,808.089172 463.958496,801.441040
	C463.877472,756.794800 463.890320,712.148254 463.974609,667.502014
	C463.984314,662.357422 464.407806,657.188232 465.021851,652.076416
	C465.820587,645.427124 469.537201,642.003845 475.273987,642.080322
	C480.868744,642.154907 484.026123,645.272339 484.809357,652.126404
	C485.394623,657.247925 485.492096,662.425293 485.812744,668.068176
z"/>
<path fill="#030303" opacity="1.000000" stroke="none"
	d="
M817.097168,800.223389
	C816.956299,784.604065 825.307068,774.735107 837.751221,766.881653
	C837.870972,768.303955 838.061096,769.512756 838.061035,770.721558
	C838.060242,786.372742 838.076843,802.024292 837.975952,817.674927
	C837.954590,820.988281 837.646057,824.322449 837.177490,827.605347
	C836.311096,833.676575 834.081482,835.749939 828.651672,835.958923
	C822.746277,836.186157 818.792664,833.545715 818.228577,827.583557
	C817.384705,818.664124 817.413391,809.662231 817.097168,800.223389
z"/>
</svg>