<?xml version="1.0" encoding="UTF-8" standalone="no"?>
<!DOCTYPE svg PUBLIC "-//W3C//DTD SVG 1.1//EN" "http://www.w3.org/Graphics/SVG/1.1/DTD/svg11.dtd">
<!-- Created with Vectornator (http://vectornator.io/) -->
<svg height="851.0pt" stroke-miterlimit="10" style="fill-rule:nonzero;clip-rule:evenodd;stroke-linecap:round;stroke-linejoin:round;" version="1.1" viewBox="0 0 894 851" width="894.0pt" xml:space="preserve" xmlns="http://www.w3.org/2000/svg" xmlns:xlink="http://www.w3.org/1999/xlink">
<defs/>
<g id="Camada-2">
<g opacity="1">
<path d="M264.235 213.898L438.82 48.7169L621.174 209.81" fill="#000000" fill-rule="nonzero" opacity="1" stroke="#000000" stroke-linecap="butt" stroke-linejoin="round" stroke-width="1.05683"/>
<path d="M520.371 402.427L712.453 402.427L712.453 704.636L520.371 704.636L520.371 402.427Z" fill="#000000" fill-rule="nonzero" opacity="1" stroke="#000000" stroke-linecap="butt" stroke-linejoin="round" stroke-width="1"/>
<path d="M267.431 207.852L620.169 207.852L620.169 403.014L267.431 403.014L267.431 207.852Z" fill="#000000" fill-rule="nonzero" opacity="1" stroke="#000000" stroke-linecap="butt" stroke-linejoin="round" stroke-width="1"/>
<path d="M267.521 211.744L67.4368 403.037L204.857 403.334" fill="#000000" fill-rule="nonzero" opacity="1" stroke="#000000" stroke-linecap="butt" stroke-linejoin="round" stroke-width="1.05683"/>
<path d="M618.337 210.49L818.422 401.784L681.002 402.08" fill="#000000" fill-rule="nonzero" opacity="1" stroke="#000000" stroke-linecap="butt" stroke-linejoin="round" stroke-width="1.05683"/>
<path d="M182.307 403.281L367.559 403.281L367.559 704.636L182.307 704.636L182.307 403.281Z" fill="#000000" fill-rule="nonzero" opacity="1" stroke="#000000" stroke-linecap="butt" stroke-linejoin="round" stroke-width="1"/>
</g>
<path d="M268.865 470.509C217.389 450.178 174.565 402.164 194.463 368.424C214.361 334.683 234.259 273.259 234.259 273.259L254.157 233.463L261.999 218.132L268.761 211.371L282.744 214.137L316.689 345.44C316.689 345.44 321.519 404.05 319.587 412.744C317.655 421.439 337.943 407.592 313.146 440.117C288.35 472.642 280.621 488.422 280.621 488.422L274.502 481.981" fill="#000000" fill-rule="nonzero" opacity="1" stroke="#000000" stroke-linecap="butt" stroke-linejoin="round" stroke-width="1"/>
<path d="M622.943 471.07C674.419 450.74 717.243 402.725 697.345 368.985C677.447 335.245 657.549 273.821 657.549 273.821L637.651 234.025L629.809 218.694L623.047 211.932L609.064 214.698L575.119 346.001C575.119 346.001 570.289 404.611 572.221 413.306C574.153 422.001 553.865 408.153 578.662 440.679C603.458 473.204 611.187 488.983 611.187 488.983L617.306 482.543" fill="#000000" fill-rule="nonzero" opacity="1" stroke="#000000" stroke-linecap="butt" stroke-linejoin="round" stroke-width="1"/>
</g>
<g id="Camada-3">
<g opacity="1">
<g opacity="1">
<path d="M415.265 464.107C407.222 468.048 404.965 450.67 399.805 453.004C394.937 455.205 401.069 472.478 404.383 471.828" fill="#010101" fill-rule="nonzero" opacity="1" stroke="#000000" stroke-linecap="round" stroke-linejoin="round" stroke-width="0.633293"/>
<path d="M389.095 510.229C389.095 478.975 414.026 453.639 444.78 453.639C475.534 453.639 500.464 478.975 500.464 510.229C500.464 541.483 475.534 566.819 444.78 566.819C414.026 566.819 389.095 541.483 389.095 510.229Z" fill="#010101" fill-rule="nonzero" opacity="1" stroke="#010101" stroke-linecap="butt" stroke-linejoin="round" stroke-width="1"/>
<path d="M425.55 458.09C425.55 462.779 415.836 451.258 415.258 450.45C406.48 438.16 407.887 459.452 414.323 465.887" fill="#010101" fill-rule="nonzero" opacity="1" stroke="#000000" stroke-linecap="round" stroke-linejoin="round" stroke-width="0.698052"/>
<path d="M392.836 646.95C392.836 620.763 416.194 599.534 445.006 599.534C473.819 599.534 497.176 620.763 497.176 646.95C497.176 673.138 473.819 694.367 445.006 694.367C416.194 694.367 392.836 673.138 392.836 646.95Z" fill="#010101" fill-rule="nonzero" opacity="1" stroke="#000000" stroke-linecap="butt" stroke-linejoin="round" stroke-width="1"/>
<path d="M433.827 558.327C421.299 558.327 471.383 559.782 471.383 559.782C471.383 559.782 448.966 576.729 447.712 589.271C446.338 603.012 457.32 627.286 446.39 629.472C391.72 640.406 431.324 612.279 428.934 578.824C427.946 564.994 395.638 549.056 408.04 542.855" fill="#010101" fill-rule="nonzero" opacity="1" stroke="#010101" stroke-linecap="round" stroke-linejoin="round" stroke-width="1.03513"/>
<path d="M458.416 558.138C470.944 558.138 420.86 559.593 420.86 559.593C420.86 559.593 443.277 576.54 444.531 589.083C445.905 602.824 434.923 627.098 445.853 629.284C500.523 640.217 460.919 612.09 463.309 578.636C464.297 564.805 496.605 548.867 484.203 542.666" fill="#010101" fill-rule="nonzero" opacity="1" stroke="#010101" stroke-linecap="round" stroke-linejoin="round" stroke-width="1.03513"/>
</g>
<path d="M443.421 546.948C426.371 547.068 412.512 541.886 412.466 535.373C412.42 528.861 426.205 523.484 443.255 523.364C460.306 523.244 474.165 528.426 474.211 534.939C474.257 541.451 460.472 546.828 443.421 546.948Z" fill="#ffffff" fill-rule="nonzero" opacity="1" stroke="#000000" stroke-linecap="butt" stroke-linejoin="round" stroke-opacity="0" stroke-width="0.633293"/>
<path d="M425.392 537.344C425.392 528.199 433.597 520.784 443.717 520.784C453.837 520.784 462.041 528.199 462.041 537.344C462.041 546.49 453.837 553.904 443.717 553.904C433.597 553.904 425.392 546.49 425.392 537.344Z" fill="#ffffff" fill-rule="nonzero" opacity="1" stroke="#000000" stroke-linecap="butt" stroke-linejoin="round" stroke-opacity="0" stroke-width="1"/>
<path d="M455.692 500.502C455.692 492.594 459.911 486.184 465.116 486.184C470.32 486.184 474.539 492.594 474.539 500.502C474.539 508.41 470.32 514.82 465.116 514.82C459.911 514.82 455.692 508.41 455.692 500.502Z" fill="#ffffff" fill-rule="nonzero" opacity="1" stroke="#000000" stroke-linecap="butt" stroke-linejoin="round" stroke-opacity="0" stroke-width="1"/>
<path d="M412.944 501.135C412.944 493.227 417.163 486.816 422.367 486.816C427.572 486.816 431.791 493.227 431.791 501.135C431.791 509.042 427.572 515.453 422.367 515.453C417.163 515.453 412.944 509.042 412.944 501.135Z" fill="#ffffff" fill-rule="nonzero" opacity="1" stroke="#000000" stroke-linecap="butt" stroke-linejoin="round" stroke-opacity="0" stroke-width="1"/>
</g>
<path d="M440.295 564.581C446.185 566.053 451.691 567.845 457.666 568.698" fill="#010101" fill-rule="nonzero" opacity="1" stroke="#010101" stroke-linecap="round" stroke-linejoin="round" stroke-width="1.03513"/>
<path d="M475.938 554.029C456.258 554.029 461.394 606.498 471.435 615.666C472.511 616.649 483.092 623.67 482.372 624.03C419.898 655.267 462.895 534.178 451.104 557.761" fill="#010101" fill-rule="nonzero" opacity="1" stroke="#010101" stroke-linecap="round" stroke-linejoin="round" stroke-width="1.03513"/>
</g>
</svg>
