<svg version="1.1" id="Layer_1" xmlns="http://www.w3.org/2000/svg" xmlns:xlink="http://www.w3.org/1999/xlink" x="0px" y="0px"
	 width="100%" viewBox="0 0 894 851" enable-background="new 0 0 894 851" xml:space="preserve">
<path fill="#FFFFFF" opacity="1.000000" stroke="none" 
	d="
M616.000000,852.000000 
	C410.666656,852.000000 205.833328,852.000000 1.000000,852.000000 
	C1.000000,568.333313 1.000000,284.666656 1.000000,1.000000 
	C299.000000,1.000000 597.000000,1.000000 895.000000,1.000000 
	C895.000000,284.666656 895.000000,568.333313 895.000000,852.000000 
	C802.166687,852.000000 709.333313,852.000000 616.000000,852.000000 
M181.351944,670.499817 
	C181.343323,678.164124 181.253860,685.829590 181.363647,693.492188 
	C181.411240,696.813660 182.105881,699.989929 186.455521,700.087646 
	C198.938049,700.368103 211.420807,700.783264 223.904694,700.832764 
	C266.734375,701.002747 309.564575,701.045288 352.394592,701.122437 
	C366.032837,701.146973 366.151855,701.004272 366.166779,687.586609 
	C366.269501,595.090759 366.374908,502.594971 366.479187,410.099152 
	C366.481354,408.187775 366.479462,406.276398 366.479462,404.889954 
	C418.379578,404.889954 469.464355,404.889954 520.876343,404.889954 
	C520.876343,407.528046 520.875977,409.499695 520.876404,411.471313 
	C520.892395,487.467957 520.858154,563.464661 520.961182,639.461182 
	C520.985779,657.622314 521.582153,675.782349 521.664001,693.943970 
	C521.686401,698.911682 523.930420,700.919006 528.514160,701.090942 
	C529.513000,701.128479 530.513733,701.131226 531.513428,701.123474 
	C586.998840,700.696106 642.484253,700.275757 697.969482,699.824097 
	C705.380005,699.763794 706.137024,699.110718 706.117798,692.631042 
	C705.861389,606.471191 705.570374,520.311401 705.299500,434.151611 
	C705.264648,423.051300 705.294739,411.950775 705.294739,400.599792 
	C709.002930,400.599792 712.493103,400.618744 715.983032,400.596802 
	C743.313721,400.424805 770.645813,400.350739 797.973694,399.972198 
	C803.022766,399.902283 808.100159,398.813538 813.081177,397.789886 
	C817.736877,396.833069 818.642517,393.600952 815.551819,389.836548 
	C814.394287,388.426666 813.040527,387.167450 811.704651,385.915924 
	C780.694458,356.864594 749.735840,327.757751 718.644409,298.793579 
	C629.757324,215.988129 540.818115,133.238724 451.890228,50.477161 
	C445.633057,44.653908 441.887756,44.683884 435.594818,50.533623 
	C416.676636,68.119492 397.765106,85.712517 378.868500,103.321548 
	C279.143188,196.251755 179.420578,289.184845 79.714828,382.135986 
	C76.794510,384.858490 73.818771,387.589172 71.326729,390.684601 
	C68.766647,393.864594 69.894264,396.927887 73.844917,397.756775 
	C78.666374,398.768402 83.580894,399.878296 88.468567,399.943604 
	C118.129692,400.339966 147.794662,400.446747 177.458221,400.667328 
	C179.201553,400.680267 180.943756,400.841980 181.353699,400.863739 
	C181.353699,490.878784 181.353699,580.189270 181.351944,670.499817 
M444.509613,456.048431 
	C434.872253,454.660187 426.605164,458.149139 418.168671,464.530731 
	C416.658386,458.604614 415.566742,453.652100 414.073639,448.823761 
	C413.547699,447.123108 412.322601,444.908447 410.900970,444.415344 
	C409.405090,443.896454 406.612061,444.574158 405.593384,445.763397 
	C403.606995,448.082306 401.902863,450.970490 401.106659,453.901337 
	C400.028625,457.869812 399.914551,462.100098 399.230591,467.438080 
	C397.644318,463.439453 396.393158,460.566986 395.368378,457.615967 
	C394.503540,455.125427 392.738068,454.042633 391.000580,455.990448 
	C389.126953,458.090973 387.147766,460.942749 386.989258,463.573761 
	C386.451782,472.495209 387.924500,481.199402 393.150177,488.770599 
	C395.098145,491.592926 395.471588,494.024414 394.418091,497.459412 
	C386.867004,522.080139 397.319672,549.890198 419.641418,563.397339 
	C421.675415,564.628174 423.198730,567.758972 423.712219,570.263184 
	C425.896545,580.915710 424.888550,591.506958 421.510101,601.788818 
	C420.796478,603.960632 419.139465,606.385376 417.222870,607.505859 
	C406.283295,613.900818 399.306641,623.319885 395.564850,635.171814 
	C387.476715,660.790771 400.665253,690.148193 431.131836,693.133545 
	C440.988068,694.099304 451.180298,694.070007 460.950165,692.648987 
	C467.743591,691.660767 475.158966,688.847839 480.432678,684.558594 
	C504.447388,665.026733 501.039398,624.909729 474.386047,608.794067 
	C470.779938,606.613586 468.706573,604.009705 467.656647,600.118103 
	C464.971283,590.164673 464.076508,580.092773 466.194672,569.982666 
	C466.713074,567.508423 468.373596,564.485168 470.429688,563.262512 
	C477.958435,558.785278 483.724487,552.647034 488.354736,545.474854 
	C503.270966,522.369995 500.989868,493.868866 480.858063,472.382446 
	C471.624939,462.527985 460.659973,454.134064 444.509613,456.048431 
z"/>
<path fill="#000000" opacity="1.000000" stroke="none" 
	d="
M181.352814,669.999756 
	C181.353699,580.189270 181.353699,490.878784 181.353699,400.863739 
	C180.943756,400.841980 179.201553,400.680267 177.458221,400.667328 
	C147.794662,400.446747 118.129692,400.339966 88.468567,399.943604 
	C83.580894,399.878296 78.666374,398.768402 73.844917,397.756775 
	C69.894264,396.927887 68.766647,393.864594 71.326729,390.684601 
	C73.818771,387.589172 76.794510,384.858490 79.714828,382.135986 
	C179.420578,289.184845 279.143188,196.251755 378.868500,103.321548 
	C397.765106,85.712517 416.676636,68.119492 435.594818,50.533623 
	C441.887756,44.683884 445.633057,44.653908 451.890228,50.477161 
	C540.818115,133.238724 629.757324,215.988129 718.644409,298.793579 
	C749.735840,327.757751 780.694458,356.864594 811.704651,385.915924 
	C813.040527,387.167450 814.394287,388.426666 815.551819,389.836548 
	C818.642517,393.600952 817.736877,396.833069 813.081177,397.789886 
	C808.100159,398.813538 803.022766,399.902283 797.973694,399.972198 
	C770.645813,400.350739 743.313721,400.424805 715.983032,400.596802 
	C712.493103,400.618744 709.002930,400.599792 705.294739,400.599792 
	C705.294739,411.950775 705.264648,423.051300 705.299500,434.151611 
	C705.570374,520.311401 705.861389,606.471191 706.117798,692.631042 
	C706.137024,699.110718 705.380005,699.763794 697.969482,699.824097 
	C642.484253,700.275757 586.998840,700.696106 531.513428,701.123474 
	C530.513733,701.131226 529.513000,701.128479 528.514160,701.090942 
	C523.930420,700.919006 521.686401,698.911682 521.664001,693.943970 
	C521.582153,675.782349 520.985779,657.622314 520.961182,639.461182 
	C520.858154,563.464661 520.892395,487.467957 520.876404,411.471313 
	C520.875977,409.499695 520.876343,407.528046 520.876343,404.889954 
	C469.464355,404.889954 418.379578,404.889954 366.479462,404.889954 
	C366.479462,406.276398 366.481354,408.187775 366.479187,410.099152 
	C366.374908,502.594971 366.269501,595.090759 366.166779,687.586609 
	C366.151855,701.004272 366.032837,701.146973 352.394592,701.122437 
	C309.564575,701.045288 266.734375,701.002747 223.904694,700.832764 
	C211.420807,700.783264 198.938049,700.368103 186.455521,700.087646 
	C182.105881,699.989929 181.411240,696.813660 181.363647,693.492188 
	C181.253860,685.829590 181.343323,678.164124 181.352814,669.999756 
M284.500000,691.002441 
	C261.377594,691.002441 238.255203,691.002441 215.132797,691.002441 
	C215.134995,691.234741 215.137192,691.467041 215.139404,691.699341 
	C261.026978,691.699341 306.914551,691.699341 352.802124,691.699341 
	C352.802429,691.467041 352.802704,691.234741 352.803009,691.002441 
	C330.368652,691.002441 307.934326,691.002441 284.500000,691.002441 
M650.500000,690.995300 
	C612.066040,690.995300 573.632019,690.995300 535.198059,690.995300 
	C535.199402,691.229004 535.200745,691.462708 535.202087,691.696411 
	C580.754333,691.696411 626.306580,691.696411 671.858826,691.696411 
	C671.860779,691.462646 671.862671,691.228882 671.864624,690.995117 
	C665.076355,690.995117 658.288147,690.995117 650.500000,690.995300 
M357.993256,599.500000 
	C357.993256,591.757385 357.993256,584.014709 357.993256,576.272095 
	C357.775665,576.279236 357.558105,576.286377 357.340515,576.293579 
	C357.340515,604.781860 357.340515,633.270203 357.340515,661.758484 
	C357.558228,661.757935 357.775940,661.757385 357.993652,661.756775 
	C357.993652,641.337830 357.993652,620.918945 357.993256,599.500000 
M190.998169,513.500000 
	C190.998169,501.030090 190.998169,488.560181 190.998169,476.090240 
	C190.763138,476.094238 190.528091,476.098236 190.293060,476.102234 
	C190.293060,504.336060 190.293060,532.569885 190.293060,560.803711 
	C190.527771,560.804077 190.762482,560.804443 190.997192,560.804810 
	C190.997192,545.369873 190.997192,529.934937 190.998169,513.500000 
M749.524109,391.993896 
	C757.306396,391.993896 765.088684,391.993896 772.870972,391.993896 
	C772.864624,391.764343 772.858276,391.534760 772.851929,391.305206 
	C761.300171,391.305206 749.748413,391.305206 738.196655,391.305206 
	C738.194214,391.534637 738.191833,391.764069 738.189392,391.993500 
	C741.638611,391.993500 745.087891,391.993500 749.524109,391.993896 
M139.277435,391.989166 
	C141.143494,391.989166 143.009537,391.989166 144.875595,391.989166 
	C144.870605,391.755829 144.865616,391.522522 144.860626,391.289185 
	C134.606903,391.289185 124.353172,391.289185 114.099449,391.289185 
	C114.098534,391.522705 114.097618,391.756226 114.096710,391.989746 
	C122.176071,391.989746 130.255447,391.989746 139.277435,391.989166 
z"/>
<path fill="#030303" opacity="1.000000" stroke="none" 
	d="
M444.999207,456.047974 
	C460.659973,454.134064 471.624939,462.527985 480.858063,472.382446 
	C500.989868,493.868866 503.270966,522.369995 488.354736,545.474854 
	C483.724487,552.647034 477.958435,558.785278 470.429688,563.262512 
	C468.373596,564.485168 466.713074,567.508423 466.194672,569.982666 
	C464.076508,580.092773 464.971283,590.164673 467.656647,600.118103 
	C468.706573,604.009705 470.779938,606.613586 474.386047,608.794067 
	C501.039398,624.909729 504.447388,665.026733 480.432678,684.558594 
	C475.158966,688.847839 467.743591,691.660767 460.950165,692.648987 
	C451.180298,694.070007 440.988068,694.099304 431.131836,693.133545 
	C400.665253,690.148193 387.476715,660.790771 395.564850,635.171814 
	C399.306641,623.319885 406.283295,613.900818 417.222870,607.505859 
	C419.139465,606.385376 420.796478,603.960632 421.510101,601.788818 
	C424.888550,591.506958 425.896545,580.915710 423.712219,570.263184 
	C423.198730,567.758972 421.675415,564.628174 419.641418,563.397339 
	C397.319672,549.890198 386.867004,522.080139 394.418091,497.459412 
	C395.471588,494.024414 395.098145,491.592926 393.150177,488.770599 
	C387.924500,481.199402 386.451782,472.495209 386.989258,463.573761 
	C387.147766,460.942749 389.126953,458.090973 391.000580,455.990448 
	C392.738068,454.042633 394.503540,455.125427 395.368378,457.615967 
	C396.393158,460.566986 397.644318,463.439453 399.230591,467.438080 
	C399.914551,462.100098 400.028625,457.869812 401.106659,453.901337 
	C401.902863,450.970490 403.606995,448.082306 405.593384,445.763397 
	C406.612061,444.574158 409.405090,443.896454 410.900970,444.415344 
	C412.322601,444.908447 413.547699,447.123108 414.073639,448.823761 
	C415.566742,453.652100 416.658386,458.604614 418.168671,464.530731 
	C426.605164,458.149139 434.872253,454.660187 444.999207,456.047974 
M432.581909,524.953796 
	C432.223022,525.301392 431.731384,525.584167 431.525238,526.006348 
	C428.610901,531.975037 424.783417,536.324646 417.781281,538.326904 
	C412.785553,539.755493 412.646759,545.406555 417.089020,548.417603 
	C420.472931,550.711365 424.249939,553.095337 428.154633,553.828918 
	C441.487152,556.333862 454.906830,555.863831 467.887451,551.773132 
	C470.677948,550.893738 473.803528,547.799438 474.738373,545.036499 
	C476.360260,540.242920 472.568970,536.425964 466.662659,536.075256 
	C463.874054,535.909668 462.344299,535.711426 461.722900,532.205872 
	C461.257568,529.580811 458.861328,526.878235 456.630920,525.062500 
	C449.094574,518.927307 441.084229,519.811279 432.581909,524.953796 
M424.970520,516.532654 
	C427.093750,514.740295 430.480469,513.286804 431.071533,511.083466 
	C432.225922,506.779877 432.573395,501.938110 431.879822,497.535858 
	C430.835144,490.904785 426.909485,486.694916 423.313141,487.062469 
	C417.446777,487.661987 415.833740,492.220398 414.424866,497.016693 
	C411.829102,505.853485 416.272491,514.963196 424.970520,516.532654 
M457.248352,507.765717 
	C457.505371,508.503571 457.756622,509.243500 458.020294,509.978973 
	C459.551239,514.248962 463.829102,517.585876 466.982941,516.973633 
	C471.028137,516.188354 474.830933,511.696381 474.973206,507.319824 
	C475.086426,503.836731 475.079071,500.344574 474.976166,496.860870 
	C474.825684,491.767456 470.971039,487.240021 466.743347,487.018555 
	C462.751801,486.809448 458.907471,490.227844 458.063721,495.281982 
	C457.424133,499.113190 457.347839,503.038452 457.248352,507.765717 
z"/>
<path fill="#0F0F0F" opacity="1.000000" stroke="none" 
	d="
M285.000000,691.002441 
	C307.934326,691.002441 330.368652,691.002441 352.803009,691.002441 
	C352.802704,691.234741 352.802429,691.467041 352.802124,691.699341 
	C306.914551,691.699341 261.026978,691.699341 215.139404,691.699341 
	C215.137192,691.467041 215.134995,691.234741 215.132797,691.002441 
	C238.255203,691.002441 261.377594,691.002441 285.000000,691.002441 
z"/>
<path fill="#0F0F0F" opacity="1.000000" stroke="none" 
	d="
M650.999939,690.995239 
	C658.288147,690.995117 665.076355,690.995117 671.864624,690.995117 
	C671.862671,691.228882 671.860779,691.462646 671.858826,691.696411 
	C626.306580,691.696411 580.754333,691.696411 535.202087,691.696411 
	C535.200745,691.462708 535.199402,691.229004 535.198059,690.995300 
	C573.632019,690.995300 612.066040,690.995300 650.999939,690.995239 
z"/>
<path fill="#101010" opacity="1.000000" stroke="none" 
	d="
M357.993469,600.000000 
	C357.993652,620.918945 357.993652,641.337830 357.993652,661.756775 
	C357.775940,661.757385 357.558228,661.757935 357.340515,661.758484 
	C357.340515,633.270203 357.340515,604.781860 357.340515,576.293579 
	C357.558105,576.286377 357.775665,576.279236 357.993256,576.272095 
	C357.993256,584.014709 357.993256,591.757385 357.993469,600.000000 
z"/>
<path fill="#181818" opacity="1.000000" stroke="none" 
	d="
M190.997681,514.000000 
	C190.997192,529.934937 190.997192,545.369873 190.997192,560.804810 
	C190.762482,560.804443 190.527771,560.804077 190.293060,560.803711 
	C190.293060,532.569885 190.293060,504.336060 190.293060,476.102234 
	C190.528091,476.098236 190.763138,476.094238 190.998169,476.090240 
	C190.998169,488.560181 190.998169,501.030090 190.997681,514.000000 
z"/>
<path fill="#131313" opacity="1.000000" stroke="none" 
	d="
M749.030640,391.993713 
	C745.087891,391.993500 741.638611,391.993500 738.189392,391.993500 
	C738.191833,391.764069 738.194214,391.534637 738.196655,391.305206 
	C749.748413,391.305206 761.300171,391.305206 772.851929,391.305206 
	C772.858276,391.534760 772.864624,391.764343 772.870972,391.993896 
	C765.088684,391.993896 757.306396,391.993896 749.030640,391.993713 
z"/>
<path fill="#131313" opacity="1.000000" stroke="none" 
	d="
M138.806122,391.989441 
	C130.255447,391.989746 122.176071,391.989746 114.096710,391.989746 
	C114.097618,391.756226 114.098534,391.522705 114.099449,391.289185 
	C124.353172,391.289185 134.606903,391.289185 144.860626,391.289185 
	C144.865616,391.522522 144.870605,391.755829 144.875595,391.989166 
	C143.009537,391.989166 141.143494,391.989166 138.806122,391.989441 
z"/>
<path fill="#FFFFFF" opacity="1.000000" stroke="none" 
	d="
M432.839417,524.670654 
	C441.084229,519.811279 449.094574,518.927307 456.630920,525.062500 
	C458.861328,526.878235 461.257568,529.580811 461.722900,532.205872 
	C462.344299,535.711426 463.874054,535.909668 466.662659,536.075256 
	C472.568970,536.425964 476.360260,540.242920 474.738373,545.036499 
	C473.803528,547.799438 470.677948,550.893738 467.887451,551.773132 
	C454.906830,555.863831 441.487152,556.333862 428.154633,553.828918 
	C424.249939,553.095337 420.472931,550.711365 417.089020,548.417603 
	C412.646759,545.406555 412.785553,539.755493 417.781281,538.326904 
	C424.783417,536.324646 428.610901,531.975037 431.525238,526.006348 
	C431.731384,525.584167 432.223022,525.301392 432.839417,524.670654 
z"/>
<path fill="#FFFFFF" opacity="1.000000" stroke="none" 
	d="
M424.640930,516.746460 
	C416.272491,514.963196 411.829102,505.853485 414.424866,497.016693 
	C415.833740,492.220398 417.446777,487.661987 423.313141,487.062469 
	C426.909485,486.694916 430.835144,490.904785 431.879822,497.535858 
	C432.573395,501.938110 432.225922,506.779877 431.071533,511.083466 
	C430.480469,513.286804 427.093750,514.740295 424.640930,516.746460 
z"/>
<path fill="#FFFFFF" opacity="1.000000" stroke="none" 
	d="
M457.134644,507.343781 
	C457.347839,503.038452 457.424133,499.113190 458.063721,495.281982 
	C458.907471,490.227844 462.751801,486.809448 466.743347,487.018555 
	C470.971039,487.240021 474.825684,491.767456 474.976166,496.860870 
	C475.079071,500.344574 475.086426,503.836731 474.973206,507.319824 
	C474.830933,511.696381 471.028137,516.188354 466.982941,516.973633 
	C463.829102,517.585876 459.551239,514.248962 458.020294,509.978973 
	C457.756622,509.243500 457.505371,508.503571 457.134644,507.343781 
z"/>
</svg>