<svg version="1.1" id="Layer_1" xmlns="http://www.w3.org/2000/svg" xmlns:xlink="http://www.w3.org/1999/xlink" x="0px" y="0px"
	 width="100%" viewBox="0 0 1024 960" enable-background="new 0 0 1024 960" xml:space="preserve">
<path fill="#000000" opacity="1.000000" stroke="none" 
	d="
M429.984406,84.666534 
	C447.659668,81.413307 466.489594,90.798882 474.382721,106.313866 
	C478.061920,113.545784 484.949829,116.854301 492.212036,118.972382 
	C505.751251,122.921227 522.479309,115.151451 528.254089,104.270157 
	C537.637146,86.589775 563.509583,76.724640 586.311768,89.996986 
	C594.456970,94.738037 600.319031,101.274063 604.166565,110.143532 
	C620.212585,147.133423 632.192871,185.623322 646.334778,223.311905 
	C648.033081,227.837921 650.238831,229.123657 655.095764,229.939789 
	C682.971130,234.623825 711.032776,238.903214 736.806946,251.598114 
	C741.614258,253.965927 746.089478,256.818024 749.818115,260.754425 
	C757.236023,268.585754 757.213257,277.209900 749.753052,285.112091 
	C743.758423,291.461884 736.050232,295.054138 728.266235,298.483429 
	C715.110657,304.279297 701.284058,307.981445 687.348022,311.314484 
	C685.584473,311.736267 683.831909,312.204163 681.498962,312.796844 
	C683.690857,317.383057 685.773010,321.648834 687.777832,325.950714 
	C695.337830,342.172180 698.587585,359.438049 700.276978,377.108704 
	C701.430359,389.173340 703.116821,400.724426 709.980225,411.656677 
	C719.539429,426.882843 723.555176,444.554932 726.120422,462.258514 
	C733.808899,515.319275 726.876221,566.796509 708.273254,616.844055 
	C701.865417,634.082886 694.657166,651.382019 682.654846,665.216858 
	C669.819885,680.011353 667.325317,696.838196 667.303040,714.789246 
	C667.239990,765.615662 682.040100,812.179260 708.778625,855.101746 
	C711.664978,859.735107 712.651794,864.619995 713.170471,869.705566 
	C713.626038,874.172668 709.620361,879.046082 705.363770,880.171631 
	C703.691406,880.613831 702.418884,880.263733 701.471680,878.813293 
	C688.116333,858.363098 672.554199,839.240723 665.104614,815.331909 
	C654.463318,781.179871 645.441284,746.769043 646.848999,710.579773 
	C647.519775,693.335449 649.864136,676.307678 659.321045,661.294067 
	C663.564026,654.558044 668.615234,648.331238 673.298828,641.872742 
	C681.419434,630.674622 686.295532,617.882996 690.985229,605.065918 
	C704.895874,567.047546 710.593933,527.707764 708.570068,487.337830 
	C707.608398,468.154724 704.114380,449.359985 697.158752,431.289551 
	C694.319885,423.914276 689.505066,417.711426 685.970581,410.738770 
	C679.264954,397.510529 680.184509,383.366791 678.801270,369.411652 
	C677.222473,353.483215 672.589355,338.453583 664.164368,324.689545 
	C661.057007,319.613129 657.716003,317.036224 650.880127,318.144531 
	C612.718445,324.331787 574.257629,327.377502 535.598633,328.530731 
	C500.948639,329.564392 466.336670,329.338318 431.768768,327.075806 
	C403.383301,325.217957 375.036163,322.652588 346.988281,317.648102 
	C343.843201,317.086945 342.355927,318.571594 340.897430,320.756531 
	C332.213165,333.766052 327.843109,348.325989 325.261017,363.580292 
	C324.364929,368.874237 323.947601,374.204773 324.202301,379.495392 
	C324.961365,395.261261 318.238617,408.393951 310.529327,421.385651 
	C304.606354,431.367035 301.604919,442.548584 299.376160,453.827118 
	C291.693237,492.705475 294.057678,531.358093 302.863495,569.741272 
	C308.818787,595.699402 317.928650,620.475403 331.818512,643.343994 
	C333.383881,645.921265 335.267395,648.166382 337.409943,650.320862 
	C348.651031,661.624817 353.144989,676.058777 355.218842,691.274353 
	C361.144867,734.752686 351.436798,775.959534 336.520142,816.386597 
	C328.628632,837.774048 316.058899,856.768005 306.020264,877.052856 
	C304.742615,879.634521 303.172272,880.176697 300.409454,879.163757 
	C288.687561,874.866394 287.595551,866.180725 294.499207,854.289185 
	C302.885712,839.843323 310.984192,825.346558 317.096436,809.803040 
	C329.576721,778.065552 337.145721,745.327393 336.651154,711.023132 
	C336.530975,702.687988 335.539215,694.420349 333.640167,686.284180 
	C331.875366,678.722961 328.346863,672.407898 323.215546,666.279175 
	C313.237274,654.361389 306.234802,640.373657 300.109436,626.109802 
	C280.722015,580.963257 272.463226,533.695251 274.981781,484.722382 
	C276.322174,458.658325 280.275757,432.720062 293.712708,409.820953 
	C300.648560,398.000916 302.400574,385.629852 303.680176,372.748383 
	C305.554016,353.884460 309.569244,335.624207 318.380402,318.652252 
	C319.134857,317.198975 319.734924,315.665527 320.556641,313.835327 
	C315.821655,311.017426 310.618652,310.640015 305.744263,309.326874 
	C289.955170,305.073334 274.334564,300.410431 260.164673,291.931244 
	C259.021851,291.247406 257.881927,290.546753 256.808014,289.761749 
	C241.969254,278.914886 242.428467,265.331757 257.923126,255.355850 
	C272.327911,246.081665 288.568359,241.653366 304.963745,237.834473 
	C319.679779,234.406754 334.402985,230.827957 349.535339,229.623993 
	C352.558044,229.383499 353.246674,227.268127 354.054535,225.048172 
	C362.652344,201.422852 371.218231,177.785858 379.869629,154.180176 
	C385.822174,137.938446 390.996033,121.356079 399.121155,106.012711 
	C405.555664,93.861946 416.319580,87.397469 429.984406,84.666534 
z"/>
<path fill="#000000" opacity="1.000000" stroke="none" 
	d="
M471.118103,684.197754 
	C451.001251,682.089172 431.931824,677.785522 413.909149,669.386658 
	C407.545471,666.421143 401.437469,663.035828 395.760651,658.926575 
	C393.459930,657.261169 391.241760,656.743835 388.358917,657.018188 
	C364.592865,659.279724 341.790863,644.757141 335.627808,623.697693 
	C334.679626,620.457703 334.360229,617.146362 334.286652,613.831604 
	C334.152985,607.809082 336.426208,603.310181 341.580505,599.492554 
	C362.602173,583.922485 377.711151,563.311890 390.087616,540.562256 
	C403.417419,516.060120 412.088623,489.977936 416.491241,462.425140 
	C418.100494,452.353882 416.820099,442.124084 418.642334,432.098785 
	C419.265808,428.668610 419.859161,425.227142 420.655182,421.835175 
	C424.220093,406.644409 441.120056,401.539642 453.421600,411.803009 
	C467.164642,423.268982 483.239990,428.945923 500.312897,429.068359 
	C517.047302,429.188385 533.246399,424.063110 546.479736,412.671539 
	C559.978638,401.051392 576.756836,406.389740 581.246033,423.530457 
	C583.993530,434.021362 582.910278,444.711975 584.067078,455.273163 
	C587.658691,488.062683 598.267883,518.462524 614.714478,546.910278 
	C627.008240,568.174683 642.119812,587.003723 662.141113,601.631592 
	C667.310974,605.408752 667.701355,611.336365 666.889832,617.104187 
	C664.403198,634.777405 653.806824,646.173706 637.978943,653.121460 
	C628.278625,657.379395 618.093567,658.642395 607.701111,656.069702 
	C604.862183,655.366943 602.614868,655.784668 600.141724,657.166199 
	C563.742920,677.499023 524.473938,685.861633 483.035492,685.014221 
	C479.212219,684.935974 475.396332,684.496582 471.118103,684.197754 
M533.206055,597.114624 
	C562.036133,604.273987 588.242554,616.971008 612.154053,634.513916 
	C613.625122,635.593201 615.045105,636.625732 617.016296,636.846313 
	C627.407898,638.009094 640.961670,630.088806 645.187439,620.425781 
	C646.561768,617.283325 646.439026,615.071045 643.408691,612.745239 
	C634.929016,606.237061 627.323303,598.754639 620.572083,590.449585 
	C584.410400,545.964844 564.662231,495.252197 562.717651,437.793976 
	C562.653625,435.904358 562.901428,433.880981 560.987732,432.120544 
	C552.377991,442.349548 540.993652,446.822327 528.575073,448.796143 
	C512.373169,451.371307 496.028900,450.584351 479.740448,449.661316 
	C471.047791,449.168732 462.691559,446.938232 454.714996,443.311401 
	C448.915436,440.674469 444.218597,436.593292 439.976959,431.828796 
	C438.384735,433.959717 438.325897,435.790527 438.351654,437.628723 
	C438.602722,455.569672 435.928925,473.161377 431.304352,490.409454 
	C418.517639,538.099365 396.370911,580.284607 357.989227,612.626526 
	C354.665314,615.427368 354.642029,618.107178 356.439545,621.314697 
	C361.630981,630.578308 369.742584,635.439087 380.152557,636.765320 
	C383.717621,637.219482 386.384094,636.212280 388.934448,633.409790 
	C402.057526,618.989319 417.921967,608.515198 436.131989,601.587646 
	C467.710114,589.574280 499.867828,589.357605 533.206055,597.114624 
M498.329315,664.690002 
	C528.918945,663.334167 557.997681,656.327637 585.568970,642.062988 
	C583.221130,638.919861 580.309875,637.919312 577.749939,636.492432 
	C554.659729,623.622742 530.180420,615.037720 503.679260,612.873718 
	C474.344635,610.478394 446.594269,615.181091 421.681702,631.814392 
	C417.235229,634.783264 412.535370,637.670044 409.080994,642.437439 
	C414.113831,647.273987 419.866760,649.924805 425.629974,652.411072 
	C448.532806,662.291260 472.639038,665.351746 498.329315,664.690002 
z"/>
<path fill="#000000" opacity="1.000000" stroke="none" 
	d="
M357.097717,428.639832 
	C351.073334,406.932159 350.880188,385.655457 357.674133,364.474884 
	C358.845917,360.821686 360.529968,357.392548 362.997803,354.385803 
	C369.035706,347.029327 377.390900,347.114777 383.180817,354.733429 
	C388.130859,361.247009 390.490875,368.872864 391.925659,376.772156 
	C394.893921,393.114136 395.187378,409.455933 391.295471,425.724060 
	C389.893158,431.585754 387.898315,437.238342 384.294922,442.123260 
	C378.535095,449.931549 369.844177,449.972351 363.801727,442.365540 
	C360.645660,438.392365 358.772949,433.786804 357.097717,428.639832 
z"/>
<path fill="#000000" opacity="1.000000" stroke="none" 
	d="
M638.766174,440.620392 
	C630.137634,451.149231 621.502075,450.407501 615.018616,438.837128 
	C611.133850,431.904205 609.231995,424.307343 608.279968,416.509033 
	C606.140320,398.982330 606.680725,381.632843 612.788391,364.826355 
	C613.859497,361.878876 615.313782,358.998260 617.023743,356.368073 
	C623.592957,346.263977 633.208740,346.334015 639.744751,356.499420 
	C643.586975,362.475098 645.559204,369.178497 646.699280,376.130920 
	C649.589539,393.756622 649.363892,411.249237 644.262390,428.504150 
	C643.029968,432.672485 641.328857,436.644684 638.766174,440.620392 
z"/>
<path fill="#000000" opacity="1.000000" stroke="none" 
	d="
M472.110962,499.899017 
	C471.584503,503.338959 470.959778,506.389832 467.358673,507.171600 
	C463.700928,507.965729 461.397003,505.717377 459.445038,503.087677 
	C455.686707,498.024445 453.583557,492.274963 453.001221,486.038116 
	C452.691071,482.716278 453.592743,479.540070 456.987762,478.149445 
	C460.299469,476.792877 462.821716,478.733337 464.751556,481.184143 
	C468.972931,486.545288 470.933929,492.871613 472.110962,499.899017 
z"/>
<path fill="#000000" opacity="1.000000" stroke="none" 
	d="
M547.102722,492.660095 
	C545.410339,497.266022 543.614929,501.371887 540.527222,504.741852 
	C538.602173,506.842865 536.216797,508.006409 533.383179,507.011444 
	C530.467773,505.987732 529.647034,503.518433 529.611084,500.638611 
	C529.522583,493.537537 532.147583,487.345795 536.123352,481.684998 
	C538.008789,479.000336 540.662537,476.832733 544.153503,478.120880 
	C547.814392,479.471741 548.470337,482.912781 548.243103,486.400818 
	C548.114868,488.370087 547.567627,490.312073 547.102722,492.660095 
z"/>
</svg>